<?xml version="1.0" encoding="UTF-8" standalone="no"?>
<svg
   xmlns:dc="http://purl.org/dc/elements/1.1/"
   xmlns:cc="http://creativecommons.org/ns#"
   xmlns:rdf="http://www.w3.org/1999/02/22-rdf-syntax-ns#"
   xmlns:svg="http://www.w3.org/2000/svg"
   xmlns="http://www.w3.org/2000/svg"
   viewBox="0 0 1122.52 793.70135"
   height="793.70135"
   width="1122.52"
   xml:space="preserve"
   id="svg2"
   version="1.1"><metadata
     id="metadata8"><rdf:RDF><cc:Work
         rdf:about=""><dc:format>image/svg+xml</dc:format><dc:type
           rdf:resource="http://purl.org/dc/dcmitype/StillImage" /></cc:Work></rdf:RDF></metadata><defs
     id="defs6"><clipPath
       id="clipPath18"
       clipPathUnits="userSpaceOnUse"><path
         id="path16"
         d="M 0,595.276 H 841.89 V 0 H 0 Z" /></clipPath><linearGradient
       id="linearGradient216"
       spreadMethod="pad"
       gradientTransform="matrix(-180.27841,0,0,-180.27841,511.0842,345.57224)"
       gradientUnits="userSpaceOnUse"
       y2="0"
       x2="1"
       y1="0"
       x1="0"><stop
         id="stop212"
         offset="0"
         style="stop-opacity:1;stop-color:#2186ae" /><stop
         id="stop214"
         offset="1"
         style="stop-opacity:1;stop-color:#27b2a1" /></linearGradient><clipPath
       id="clipPath226"
       clipPathUnits="userSpaceOnUse"><path
         id="path224"
         d="M 0,595.276 H 841.89 V 0 H 0 Z" /></clipPath></defs><g
     transform="matrix(1.3333333,0,0,-1.3333333,0,793.70133)"
     id="g10"><g
       id="g12"><g
         clip-path="url(#clipPath18)"
         id="g14"><g
           transform="translate(243.2489,201.7213)"
           id="g20"><path
             id="path22"
             style="fill:#131c2d;fill-opacity:1;fill-rule:nonzero;stroke:none"
             d="m 0,0 c 1.155,-1.699 1.732,-3.523 1.732,-5.471 0,-1.676 -0.407,-3.273 -1.222,-4.791 -0.816,-1.518 -1.994,-2.843 -3.534,-3.975 -3.172,-2.266 -6.864,-3.398 -11.078,-3.398 -2.084,0 -4.077,0.295 -5.98,0.884 -1.902,0.588 -3.602,1.427 -5.097,2.514 -2.582,1.903 -4.145,4.236 -4.689,7 l 2.923,1.631 c 0.135,-2.493 1.359,-4.531 3.669,-6.117 1.177,-0.906 2.559,-1.596 4.145,-2.072 1.586,-0.476 3.263,-0.714 5.029,-0.714 3.624,0 6.683,0.928 9.175,2.786 2.401,1.767 3.602,3.851 3.602,6.252 0,1.405 -0.443,2.719 -1.325,3.943 -0.884,1.222 -2.119,2.264 -3.704,3.126 -1.496,0.769 -4.169,1.381 -8.019,1.834 -0.317,0.045 -1.462,0.226 -3.433,0.544 -1.97,0.316 -3.658,0.815 -5.062,1.495 -2.221,1.088 -3.965,2.525 -5.233,4.315 -1.269,1.789 -1.903,3.726 -1.903,5.811 0,1.675 0.419,3.25 1.258,4.722 0.838,1.472 2.026,2.776 3.567,3.909 1.495,1.086 3.195,1.924 5.097,2.514 1.903,0.588 3.896,0.883 5.98,0.883 4.214,0 7.906,-1.133 11.078,-3.397 2.627,-1.995 4.168,-4.305 4.621,-6.932 l -2.922,-1.632 c -0.046,1.133 -0.374,2.22 -0.986,3.263 -0.611,1.042 -1.484,1.993 -2.616,2.854 -1.223,0.906 -2.629,1.597 -4.214,2.073 -1.586,0.475 -3.239,0.713 -4.961,0.713 -1.722,0 -3.386,-0.238 -4.995,-0.713 -1.608,-0.476 -3.002,-1.167 -4.179,-2.073 -1.178,-0.861 -2.084,-1.825 -2.718,-2.888 -0.635,-1.066 -0.951,-2.164 -0.951,-3.296 0,-1.406 0.52,-2.798 1.562,-4.18 1.042,-1.383 2.333,-2.458 3.874,-3.228 0.951,-0.454 2.005,-0.782 3.16,-0.985 1.156,-0.204 2.639,-0.42 4.452,-0.645 0.316,-0.046 1.109,-0.16 2.377,-0.34 1.269,-0.182 2.492,-0.432 3.67,-0.748 C -6.672,5.153 -5.675,4.768 -4.859,4.315 -2.776,3.137 -1.155,1.699 0,0" /></g><g
           transform="translate(213.6816,194.3463)"
           id="g24"><path
             id="path26"
             style="fill:#131c2d;fill-opacity:1;fill-rule:nonzero;stroke:none"
             d="m 0,0 c 0.562,-2.602 2.091,-4.837 4.547,-6.647 1.466,-1.066 3.153,-1.898 5.017,-2.474 1.871,-0.579 3.856,-0.872 5.902,-0.872 4.138,0 7.812,1.127 10.922,3.348 1.499,1.102 2.662,2.41 3.454,3.885 0.791,1.471 1.191,3.04 1.191,4.664 0,1.885 -0.567,3.675 -1.686,5.322 -1.125,1.654 -2.731,3.079 -4.77,4.232 -0.792,0.439 -1.778,0.82 -2.929,1.13 -1.168,0.313 -2.391,0.563 -3.637,0.741 l -2.379,0.34 c -1.799,0.225 -3.301,0.442 -4.46,0.647 -1.175,0.207 -2.261,0.546 -3.229,1.007 -1.575,0.788 -2.91,1.9 -3.971,3.309 -1.073,1.421 -1.617,2.881 -1.617,4.34 0,1.176 0.333,2.332 0.989,3.432 0.65,1.091 1.589,2.089 2.79,2.967 1.194,0.918 2.63,1.631 4.262,2.113 3.248,0.961 6.899,0.961 10.108,0 1.606,-0.482 3.052,-1.194 4.295,-2.114 1.158,-0.881 2.061,-1.867 2.687,-2.933 0.555,-0.945 0.887,-1.939 0.993,-2.96 l 2.388,1.334 c -0.479,2.471 -1.988,4.683 -4.485,6.579 -3.105,2.216 -6.779,3.343 -10.916,3.343 -2.046,0 -4.031,-0.293 -5.902,-0.871 C 7.698,33.284 6.01,32.451 4.546,31.387 3.044,30.282 1.868,28.995 1.053,27.562 c -0.811,-1.423 -1.222,-2.968 -1.222,-4.59 0,-2.019 0.623,-3.922 1.853,-5.657 1.235,-1.744 2.962,-3.167 5.132,-4.229 1.375,-0.666 3.053,-1.161 4.989,-1.472 1.967,-0.317 3.109,-0.498 3.426,-0.543 3.859,-0.454 6.587,-1.081 8.104,-1.862 1.619,-0.879 2.895,-1.957 3.798,-3.206 0.913,-1.265 1.376,-2.644 1.376,-4.099 0,-2.478 -1.248,-4.654 -3.711,-6.466 -2.525,-1.883 -5.665,-2.838 -9.332,-2.838 -1.785,0 -3.503,0.244 -5.106,0.724 -1.611,0.484 -3.034,1.196 -4.231,2.117 -2.23,1.53 -3.489,3.513 -3.74,5.892 z m 15.466,-10.526 c -2.099,0 -4.138,0.301 -6.059,0.895 -1.92,0.593 -3.661,1.452 -5.176,2.554 -2.627,1.935 -4.239,4.346 -4.793,7.163 L -0.6,0.276 2.865,2.21 2.889,1.783 C 3.019,-0.61 4.215,-2.599 6.442,-4.128 7.6,-5.019 8.966,-5.7 10.514,-6.165 c 1.552,-0.466 3.219,-0.702 4.952,-0.702 3.55,0 6.583,0.92 9.014,2.733 2.32,1.707 3.496,3.738 3.496,6.038 0,1.341 -0.429,2.615 -1.275,3.786 -0.856,1.184 -2.072,2.209 -3.615,3.048 -1.455,0.748 -4.122,1.357 -7.923,1.804 -0.324,0.046 -1.47,0.228 -3.443,0.546 -1.987,0.318 -3.715,0.829 -5.137,1.517 -2.253,1.104 -4.047,2.584 -5.334,4.402 -1.295,1.826 -1.952,3.833 -1.952,5.965 0,1.715 0.434,3.349 1.292,4.854 0.853,1.499 2.078,2.842 3.641,3.991 1.513,1.1 3.254,1.959 5.176,2.554 1.922,0.595 3.961,0.896 6.06,0.896 4.25,0 8.029,-1.16 11.232,-3.448 2.677,-2.031 4.266,-4.42 4.729,-7.103 l 0.032,-0.187 -3.466,-1.934 -0.017,0.434 c -0.044,1.083 -0.364,2.139 -0.95,3.138 -0.589,1.005 -1.447,1.939 -2.547,2.776 -1.191,0.882 -2.581,1.566 -4.128,2.03 -3.111,0.932 -6.655,0.931 -9.804,0 C 8.978,30.509 7.601,29.826 6.454,28.944 5.306,28.105 4.416,27.16 3.803,26.131 3.196,25.114 2.889,24.051 2.889,22.972 c 0,-1.34 0.507,-2.693 1.508,-4.019 1.012,-1.343 2.284,-2.402 3.781,-3.15 0.919,-0.439 1.959,-0.762 3.087,-0.961 1.15,-0.203 2.643,-0.42 4.438,-0.644 l 2.383,-0.341 c 1.268,-0.181 2.513,-0.435 3.701,-0.753 1.193,-0.322 2.219,-0.719 3.051,-1.18 2.113,-1.196 3.778,-2.676 4.95,-4.399 1.181,-1.736 1.779,-3.627 1.779,-5.621 0,-1.713 -0.422,-3.367 -1.255,-4.917 -0.831,-1.546 -2.045,-2.913 -3.611,-4.064 -3.205,-2.289 -6.984,-3.449 -11.235,-3.449" /></g><g
           transform="translate(268.5634,221.8033)"
           id="g28"><path
             id="path30"
             style="fill:#131c2d;fill-opacity:1;fill-rule:nonzero;stroke:none"
             d="m 0,0 -10.602,-22.902 h 20.727 z m -12.028,-25.96 -5.234,-11.213 h -3.397 L 0.136,7.543 19.775,-37.173 h -3.33 l -4.961,11.213 z" /></g><g
           transform="translate(258.3788,199.1676)"
           id="g32"><path
             id="path34"
             style="fill:#131c2d;fill-opacity:1;fill-rule:nonzero;stroke:none"
             d="M 0,0 H 19.9 L 10.179,21.988 Z M 20.72,-0.533 H -0.834 l 11.023,23.815 z m 6.084,-13.738 h 2.748 l -19.239,43.802 -20.37,-43.802 h 2.81 l 5.233,11.213 h 23.857 z m 3.564,-0.533 h -3.912 l -4.961,11.213 h -23.17 l -5.232,-11.213 h -3.987 l 21.221,45.63 z" /></g><g
           transform="translate(297.6483,220.5123)"
           id="g36"><path
             id="path38"
             style="fill:#131c2d;fill-opacity:1;fill-rule:nonzero;stroke:none"
             d="M 0,0 V -35.882 H -3.058 V 8.834 L 27.523,-27.728 V 8.29 h 3.058 v -44.92 z" /></g><g
           transform="translate(297.3817,221.2477)"
           id="g40"><path
             id="path42"
             style="fill:#131c2d;fill-opacity:1;fill-rule:nonzero;stroke:none"
             d="M 0,0 30.581,-36.63 V 7.288 H 28.057 V -29.197 L -2.524,7.364 V -36.351 H 0 Z M 31.114,-38.101 0.533,-1.472 V -36.884 H -3.058 V 8.833 L 27.523,-27.729 V 7.822 h 3.591 z" /></g><g
           transform="translate(381.8368,184.6305)"
           id="g44"><path
             id="path46"
             style="fill:#131c2d;fill-opacity:1;fill-rule:nonzero;stroke:none"
             d="m 0,0 h -15.971 c -4.032,0 -7.747,0.996 -11.144,2.99 -3.399,1.993 -6.094,4.699 -8.087,8.12 -1.994,3.421 -2.99,7.17 -2.99,11.247 0,4.033 0.996,7.758 2.99,11.18 1.993,3.42 4.688,6.139 8.087,8.154 3.397,2.016 7.112,3.025 11.144,3.025 3.081,0 6.037,-0.635 8.869,-1.903 2.831,-1.269 5.29,-3.036 7.373,-5.3 l -2.242,-2.107 c -1.812,1.948 -3.941,3.453 -6.387,4.519 -2.448,1.064 -4.985,1.597 -7.613,1.597 -3.443,0 -6.636,-0.861 -9.581,-2.583 -2.946,-1.722 -5.278,-4.043 -7,-6.965 -1.722,-2.922 -2.583,-6.128 -2.583,-9.617 0,-3.489 0.861,-6.705 2.583,-9.649 1.722,-2.945 4.054,-5.29 7,-7.034 2.945,-1.744 6.138,-2.616 9.581,-2.616 H -3.194 V 18.892 H -17.737 V 21.95 L 0,21.95 Z" /></g><g
           transform="translate(365.8661,229.0797)"
           id="g48"><path
             id="path50"
             style="fill:#131c2d;fill-opacity:1;fill-rule:nonzero;stroke:none"
             d="m 0,0 c -3.963,0 -7.667,-1.005 -11.009,-2.987 -3.343,-1.984 -6.031,-4.696 -7.992,-8.06 -1.96,-3.362 -2.954,-7.078 -2.954,-11.045 0,-4.012 0.994,-7.751 2.954,-11.112 1.96,-3.364 4.648,-6.065 7.991,-8.025 3.34,-1.96 7.044,-2.954 11.01,-2.954 h 15.704 v 21.417 H -1.5 V -25.29 H 13.043 V -41.658 H 0 c -3.477,0 -6.746,0.892 -9.718,2.653 -2.97,1.759 -5.356,4.157 -7.094,7.129 -1.737,2.972 -2.619,6.264 -2.619,9.784 0,3.522 0.882,6.803 2.62,9.752 1.737,2.947 4.123,5.323 7.095,7.061 2.973,1.737 6.241,2.618 9.716,2.618 2.651,0 5.248,-0.544 7.718,-1.618 2.386,-1.039 4.502,-2.515 6.294,-4.388 l 1.854,1.743 C 13.854,-4.788 11.464,-3.092 8.76,-1.879 5.974,-0.633 3.027,0 0,0 M 16.237,-44.716 H 0 c -4.062,0 -7.857,1.018 -11.279,3.027 -3.423,2.007 -6.176,4.772 -8.183,8.216 -2.008,3.445 -3.026,7.274 -3.026,11.381 0,4.063 1.018,7.869 3.026,11.314 2.007,3.444 4.76,6.219 8.182,8.25 3.425,2.031 7.219,3.061 11.28,3.061 3.103,0 6.123,-0.647 8.979,-1.926 2.851,-1.278 5.361,-3.083 7.459,-5.363 l 0.179,-0.194 -2.63,-2.471 -0.182,0.195 c -1.78,1.913 -3.899,3.413 -6.299,4.457 -2.403,1.045 -4.928,1.575 -7.506,1.575 -3.379,0 -6.558,-0.857 -9.446,-2.546 -2.893,-1.691 -5.216,-4.003 -6.906,-6.87 -1.689,-2.867 -2.545,-6.057 -2.545,-9.482 0,-3.425 0.857,-6.626 2.546,-9.514 1.691,-2.893 4.014,-5.228 6.906,-6.94 2.887,-1.711 6.066,-2.579 9.445,-2.579 h 12.51 v 15.301 H -2.033 v 3.592 h 18.27 z" /></g><path
           id="path52"
           style="fill:#131c2d;fill-opacity:1;fill-rule:nonzero;stroke:none"
           d="m 392.302,228.802 h 3.058 V 184.63 h -3.058 z" /><path
           id="path54"
           style="fill:#131c2d;fill-opacity:1;fill-rule:nonzero;stroke:none"
           d="m 392.568,184.897 h 2.524 v 43.639 h -2.524 z m 3.059,-0.533 h -3.592 v 44.706 h 3.592 z" /><g
           transform="translate(425.3964,226.153)"
           id="g56"><path
             id="path58"
             style="fill:#131c2d;fill-opacity:1;fill-rule:nonzero;stroke:none"
             d="m 0,0 c -3.489,0 -6.706,-0.873 -9.65,-2.617 -2.946,-1.744 -5.29,-4.101 -7.035,-7.068 -1.744,-2.967 -2.616,-6.217 -2.616,-9.752 0,-3.534 0.872,-6.785 2.616,-9.751 1.745,-2.968 4.089,-5.325 7.035,-7.068 2.944,-1.745 6.161,-2.616 9.65,-2.616 3.487,0 6.704,0.871 9.649,2.616 2.945,1.743 5.278,4.1 7,7.068 1.721,2.966 2.582,6.217 2.582,9.751 0,3.535 -0.861,6.785 -2.582,9.752 -1.722,2.967 -4.055,5.324 -7,7.068 C 6.704,-0.873 3.487,0 0,0 m 0,-41.998 c -4.033,0 -7.771,1.007 -11.214,3.023 -3.443,2.016 -6.161,4.758 -8.154,8.224 -1.994,3.465 -2.99,7.237 -2.99,11.314 0,4.078 0.996,7.85 2.99,11.316 1.993,3.466 4.711,6.206 8.154,8.223 3.443,2.015 7.181,3.024 11.214,3.024 4.031,0 7.77,-1.009 11.213,-3.024 3.442,-2.017 6.16,-4.757 8.154,-8.223 1.993,-3.466 2.99,-7.238 2.99,-11.316 0,-4.077 -0.997,-7.849 -2.99,-11.314 -1.994,-3.466 -4.712,-6.208 -8.154,-8.224 C 7.77,-40.991 4.031,-41.998 0,-41.998" /></g><g
           transform="translate(425.3964,225.8854)"
           id="g60"><path
             id="path62"
             style="fill:#131c2d;fill-opacity:1;fill-rule:nonzero;stroke:none"
             d="m 0,0 c -3.423,0 -6.624,-0.867 -9.515,-2.579 -2.891,-1.713 -5.226,-4.059 -6.939,-6.973 -1.712,-2.912 -2.58,-6.147 -2.58,-9.617 0,-3.471 0.868,-6.706 2.58,-9.617 1.713,-2.915 4.048,-5.261 6.939,-6.973 2.888,-1.711 6.089,-2.579 9.515,-2.579 3.424,0 6.625,0.868 9.514,2.579 2.889,1.711 5.213,4.057 6.905,6.972 1.688,2.912 2.546,6.148 2.546,9.618 0,3.469 -0.858,6.705 -2.546,9.618 -1.692,2.914 -4.016,5.26 -6.905,6.972 C 6.623,-0.867 3.422,0 0,0 m 0,-38.871 c -3.522,0 -6.815,0.892 -9.786,2.653 -2.971,1.758 -5.369,4.168 -7.128,7.162 -1.761,2.994 -2.653,6.321 -2.653,9.887 0,3.565 0.892,6.893 2.653,9.888 1.759,2.992 4.157,5.402 7.128,7.161 2.974,1.761 6.265,2.653 9.786,2.653 3.519,0 6.811,-0.892 9.785,-2.653 2.97,-1.759 5.358,-4.169 7.095,-7.163 1.737,-2.995 2.618,-6.321 2.618,-9.886 0,-3.565 -0.881,-6.892 -2.618,-9.886 C 15.143,-32.05 12.755,-34.46 9.785,-36.218 6.813,-37.979 3.521,-38.871 0,-38.871 M 0,3.126 c -3.965,0 -7.692,-1.005 -11.079,-2.987 -3.387,-1.984 -6.098,-4.717 -8.058,-8.125 -1.961,-3.409 -2.955,-7.17 -2.955,-11.183 0,-4.013 0.994,-7.774 2.955,-11.182 1.96,-3.41 4.672,-6.144 8.058,-8.126 3.385,-1.982 7.112,-2.987 11.079,-2.987 3.965,0 7.692,1.005 11.078,2.987 3.385,1.982 6.097,4.716 8.058,8.126 1.961,3.41 2.955,7.171 2.955,11.182 0,4.011 -0.994,7.773 -2.955,11.183 -1.96,3.408 -4.672,6.141 -8.058,8.125 C 7.69,2.121 3.963,3.126 0,3.126 m 0,-45.123 c -4.062,0 -7.881,1.029 -11.349,3.059 -3.466,2.031 -6.243,4.83 -8.251,8.321 -2.007,3.489 -3.025,7.342 -3.025,11.448 0,4.107 1.018,7.959 3.025,11.448 2.007,3.49 4.784,6.289 8.251,8.321 3.47,2.03 7.287,3.06 11.349,3.06 4.06,0 7.877,-1.03 11.348,-3.06 3.466,-2.032 6.243,-4.831 8.251,-8.321 2.007,-3.491 3.025,-7.342 3.025,-11.448 0,-4.105 -1.018,-7.957 -3.025,-11.448 -2.009,-3.491 -4.786,-6.29 -8.251,-8.321 C 7.879,-40.968 4.062,-41.997 0,-41.997" /></g><g
           transform="translate(468.5487,191.4938)"
           id="g64"><path
             id="path66"
             style="fill:#131c2d;fill-opacity:1;fill-rule:nonzero;stroke:none"
             d="m 0,0 16.718,37.309 h 3.398 L 0,-7.611 -20.047,37.309 h 3.33 z" /></g><g
           transform="translate(448.913,228.5358)"
           id="g68"><path
             id="path70"
             style="fill:#131c2d;fill-opacity:1;fill-rule:nonzero;stroke:none"
             d="M 0,0 19.637,-44 39.341,0 H 36.526 L 19.636,-37.694 2.745,0 Z M 19.636,-45.307 -0.822,0.534 H 3.092 L 3.162,0.376 19.636,-36.39 36.181,0.534 h 3.982 z" /></g><g
           transform="translate(505.9257,221.8033)"
           id="g72"><path
             id="path74"
             style="fill:#131c2d;fill-opacity:1;fill-rule:nonzero;stroke:none"
             d="m 0,0 -10.602,-22.902 h 20.728 z m -12.028,-25.96 -5.234,-11.213 h -3.397 L 0.136,7.543 19.775,-37.173 h -3.329 l -4.961,11.213 z" /></g><g
           transform="translate(495.7421,199.1676)"
           id="g76"><path
             id="path78"
             style="fill:#131c2d;fill-opacity:1;fill-rule:nonzero;stroke:none"
             d="M 0,0 H 19.899 L 10.178,21.988 Z M 20.719,-0.533 H -0.835 l 11.024,23.815 z m 6.084,-13.738 h 2.748 l -19.238,43.802 -20.37,-43.802 h 2.809 l 5.233,11.213 h 23.858 z m 3.565,-0.533 h -3.912 l -4.961,11.213 h -23.17 l -5.233,-11.213 h -3.986 l 21.22,45.63 z" /></g><g
           transform="translate(535.0117,220.5123)"
           id="g80"><path
             id="path82"
             style="fill:#131c2d;fill-opacity:1;fill-rule:nonzero;stroke:none"
             d="M 0,0 V -35.882 H -3.059 V 8.834 L 27.522,-27.728 V 8.29 h 3.059 v -44.92 z" /></g><g
           transform="translate(534.7451,221.2477)"
           id="g84"><path
             id="path86"
             style="fill:#131c2d;fill-opacity:1;fill-rule:nonzero;stroke:none"
             d="M 0,0 30.581,-36.63 V 7.288 H 28.057 V -29.197 L -2.524,7.364 V -36.351 H 0 Z M 31.114,-38.101 0.533,-1.472 V -36.884 H -3.058 V 8.833 l 30.58,-36.562 V 7.822 h 3.592 z" /></g><g
           transform="translate(578.3681,220.5123)"
           id="g88"><path
             id="path90"
             style="fill:#131c2d;fill-opacity:1;fill-rule:nonzero;stroke:none"
             d="M 0,0 V -35.882 H -3.059 V 8.834 L 27.522,-27.728 V 8.29 h 3.059 v -44.92 z" /></g><g
           transform="translate(578.1015,221.2477)"
           id="g92"><path
             id="path94"
             style="fill:#131c2d;fill-opacity:1;fill-rule:nonzero;stroke:none"
             d="M 0,0 30.581,-36.63 V 7.288 H 28.056 V -29.197 L -2.524,7.364 V -36.351 H 0 Z M 31.114,-38.101 0.533,-1.472 V -36.884 H -3.059 V 8.833 L 27.522,-27.729 V 7.822 h 3.592 z" /></g><path
           id="path96"
           style="fill:#131c2d;fill-opacity:1;fill-rule:nonzero;stroke:none"
           d="m 619.414,228.802 h 3.058 V 184.63 h -3.058 z" /><path
           id="path98"
           style="fill:#131c2d;fill-opacity:1;fill-rule:nonzero;stroke:none"
           d="m 619.681,184.897 h 2.524 v 43.639 h -2.524 z m 3.057,-0.533 h -3.592 v 44.706 h 3.592 z" /><g
           transform="translate(418.5898,163.4948)"
           id="g100"><path
             id="path102"
             style="fill:#12100f;fill-opacity:1;fill-rule:nonzero;stroke:none"
             d="M 0,0 V 12.773 H 8.273 V 11.869 H 0.885 V 6.839 H 6.643 V 5.935 H 0.885 V 0.924 H 8.273 V 0 Z" /></g><g
           transform="translate(418.5898,163.4948)"
           id="g104"><path
             id="path106"
             style="fill:none;stroke:#11100f;stroke-width:0.5;stroke-linecap:butt;stroke-linejoin:miter;stroke-miterlimit:10;stroke-dasharray:none;stroke-opacity:1"
             d="M 0,0 V 12.773 H 8.273 V 11.869 H 0.885 V 6.839 H 6.643 V 5.935 H 0.885 V 0.924 H 8.273 V 0 Z" /></g><g
           transform="translate(442.0839,168.4371)"
           id="g108"><path
             id="path110"
             style="fill:#12100f;fill-opacity:1;fill-rule:nonzero;stroke:none"
             d="m 0,0 c 0.334,-0.491 0.501,-1.019 0.501,-1.582 0,-0.484 -0.118,-0.946 -0.354,-1.385 -0.236,-0.439 -0.577,-0.822 -1.022,-1.15 -0.917,-0.655 -1.984,-0.983 -3.203,-0.983 -0.603,0 -1.179,0.086 -1.729,0.256 -0.55,0.17 -1.042,0.412 -1.473,0.727 -0.747,0.551 -1.199,1.225 -1.357,2.024 l 0.845,0.472 c 0.04,-0.721 0.394,-1.311 1.062,-1.769 0.34,-0.262 0.74,-0.462 1.198,-0.599 0.459,-0.138 0.943,-0.206 1.454,-0.206 1.049,0 1.932,0.268 2.653,0.805 0.695,0.511 1.042,1.114 1.042,1.808 0,0.406 -0.128,0.786 -0.384,1.14 -0.254,0.354 -0.612,0.655 -1.071,0.904 -0.432,0.223 -1.205,0.399 -2.318,0.53 -0.092,0.013 -0.423,0.066 -0.992,0.157 -0.571,0.092 -1.059,0.237 -1.464,0.433 -0.643,0.314 -1.147,0.731 -1.514,1.248 -0.366,0.517 -0.55,1.077 -0.55,1.68 0,0.484 0.121,0.94 0.363,1.366 0.243,0.425 0.586,0.802 1.033,1.13 0.431,0.314 0.923,0.556 1.473,0.726 0.55,0.17 1.126,0.256 1.729,0.256 1.219,0 2.286,-0.328 3.203,-0.982 0.76,-0.577 1.206,-1.245 1.337,-2.005 L -0.383,4.529 C -0.396,4.856 -0.491,5.171 -0.668,5.473 -0.845,5.774 -1.098,6.049 -1.425,6.298 -1.778,6.561 -2.185,6.76 -2.644,6.897 -3.102,7.035 -3.58,7.104 -4.078,7.104 -4.575,7.104 -5.057,7.035 -5.522,6.897 -5.987,6.76 -6.39,6.561 -6.73,6.298 -7.071,6.049 -7.333,5.771 -7.517,5.463 -7.7,5.155 -7.792,4.837 -7.792,4.51 -7.792,4.104 -7.642,3.701 -7.34,3.302 -7.038,2.901 -6.665,2.591 -6.22,2.368 -5.944,2.237 -5.64,2.142 -5.306,2.083 -4.972,2.024 -4.543,1.962 -4.019,1.896 -3.927,1.883 -3.698,1.851 -3.331,1.798 -2.964,1.746 -2.61,1.674 -2.27,1.582 -1.93,1.49 -1.641,1.379 -1.405,1.248 -0.803,0.907 -0.334,0.491 0,0" /></g><g
           transform="translate(442.0839,168.4371)"
           id="g112"><path
             id="path114"
             style="fill:none;stroke:#11100f;stroke-width:0.5;stroke-linecap:butt;stroke-linejoin:miter;stroke-miterlimit:10;stroke-dasharray:none;stroke-opacity:1"
             d="m 0,0 c 0.334,-0.491 0.501,-1.019 0.501,-1.582 0,-0.484 -0.118,-0.946 -0.354,-1.385 -0.236,-0.439 -0.577,-0.822 -1.022,-1.15 -0.917,-0.655 -1.984,-0.983 -3.203,-0.983 -0.603,0 -1.179,0.086 -1.729,0.256 -0.55,0.17 -1.042,0.412 -1.473,0.727 -0.747,0.551 -1.199,1.225 -1.357,2.024 l 0.845,0.472 c 0.04,-0.721 0.394,-1.311 1.062,-1.769 0.34,-0.262 0.74,-0.462 1.198,-0.599 0.459,-0.138 0.943,-0.206 1.454,-0.206 1.049,0 1.932,0.268 2.653,0.805 0.695,0.511 1.042,1.114 1.042,1.808 0,0.406 -0.128,0.786 -0.384,1.14 -0.254,0.354 -0.612,0.655 -1.071,0.904 -0.432,0.223 -1.205,0.399 -2.318,0.53 -0.092,0.013 -0.423,0.066 -0.992,0.157 -0.571,0.092 -1.059,0.237 -1.464,0.433 -0.643,0.314 -1.147,0.731 -1.514,1.248 -0.366,0.517 -0.55,1.077 -0.55,1.68 0,0.484 0.121,0.94 0.363,1.366 0.243,0.425 0.586,0.802 1.033,1.13 0.431,0.314 0.923,0.556 1.473,0.726 0.55,0.17 1.126,0.256 1.729,0.256 1.219,0 2.286,-0.328 3.203,-0.982 0.76,-0.577 1.206,-1.245 1.337,-2.005 L -0.383,4.529 C -0.396,4.856 -0.491,5.171 -0.668,5.473 -0.845,5.774 -1.098,6.049 -1.425,6.298 -1.778,6.561 -2.185,6.76 -2.644,6.897 -3.102,7.035 -3.58,7.104 -4.078,7.104 -4.575,7.104 -5.057,7.035 -5.522,6.897 -5.987,6.76 -6.39,6.561 -6.73,6.298 -7.071,6.049 -7.333,5.771 -7.517,5.463 -7.7,5.155 -7.792,4.837 -7.792,4.51 -7.792,4.104 -7.642,3.701 -7.34,3.302 -7.038,2.901 -6.665,2.591 -6.22,2.368 -5.944,2.237 -5.64,2.142 -5.306,2.083 -4.972,2.024 -4.543,1.962 -4.019,1.896 -3.927,1.883 -3.698,1.851 -3.331,1.798 -2.964,1.746 -2.61,1.674 -2.27,1.582 -1.93,1.49 -1.641,1.379 -1.405,1.248 -0.803,0.907 -0.334,0.491 0,0 Z" /></g><g
           transform="translate(450.7392,169.9606)"
           id="g116"><path
             id="path118"
             style="fill:#12100f;fill-opacity:1;fill-rule:nonzero;stroke:none"
             d="M 0,0 H 3.655 C 4.244,0 4.788,0.12 5.286,0.363 5.783,0.605 6.18,0.933 6.475,1.346 6.77,1.759 6.917,2.207 6.917,2.691 6.917,3.189 6.77,3.645 6.475,4.058 6.18,4.47 5.783,4.798 5.286,5.04 4.788,5.282 4.244,5.403 3.655,5.403 H -0.02 Z M -0.885,-6.466 -0.904,6.308 H 3.655 C 4.401,6.308 5.093,6.144 5.728,5.816 6.363,5.488 6.868,5.05 7.241,4.5 7.614,3.949 7.801,3.347 7.801,2.691 7.801,2.05 7.614,1.45 7.241,0.894 6.868,0.337 6.363,-0.105 5.728,-0.433 5.093,-0.761 4.401,-0.924 3.655,-0.924 H 0 v -5.542 z" /></g><g
           transform="translate(450.7392,169.9606)"
           id="g120"><path
             id="path122"
             style="fill:none;stroke:#11100f;stroke-width:0.5;stroke-linecap:butt;stroke-linejoin:miter;stroke-miterlimit:10;stroke-dasharray:none;stroke-opacity:1"
             d="M 0,0 H 3.655 C 4.244,0 4.788,0.12 5.286,0.363 5.783,0.605 6.18,0.933 6.475,1.346 6.77,1.759 6.917,2.207 6.917,2.691 6.917,3.189 6.77,3.645 6.475,4.058 6.18,4.47 5.783,4.798 5.286,5.04 4.788,5.282 4.244,5.403 3.655,5.403 H -0.02 Z M -0.885,-6.466 -0.904,6.308 H 3.655 C 4.401,6.308 5.093,6.144 5.728,5.816 6.363,5.488 6.868,5.05 7.241,4.5 7.614,3.949 7.801,3.347 7.801,2.691 7.801,2.05 7.614,1.45 7.241,0.894 6.868,0.337 6.363,-0.105 5.728,-0.433 5.093,-0.761 4.401,-0.924 3.655,-0.924 H 0 v -5.542 z" /></g><g
           transform="translate(465.4579,163.4948)"
           id="g124"><path
             id="path126"
             style="fill:#12100f;fill-opacity:1;fill-rule:nonzero;stroke:none"
             d="M 0,0 V 12.773 H 8.273 V 11.869 H 0.885 V 6.839 H 6.643 V 5.935 H 0.885 V 0.924 H 8.273 V 0 Z" /></g><g
           transform="translate(465.4579,163.4948)"
           id="g128"><path
             id="path130"
             style="fill:none;stroke:#11100f;stroke-width:0.5;stroke-linecap:butt;stroke-linejoin:miter;stroke-miterlimit:10;stroke-dasharray:none;stroke-opacity:1"
             d="M 0,0 V 12.773 H 8.273 V 11.869 H 0.885 V 6.839 H 6.643 V 5.935 H 0.885 V 0.924 H 8.273 V 0 Z" /></g><g
           transform="translate(486.6806,163.3571)"
           id="g132"><path
             id="path134"
             style="fill:#12100f;fill-opacity:1;fill-rule:nonzero;stroke:none"
             d="m 0,0 c -1.166,0 -2.246,0.295 -3.242,0.885 -0.995,0.59 -1.781,1.386 -2.358,2.387 -0.577,1.002 -0.865,2.093 -0.865,3.272 0,1.18 0.288,2.267 0.865,3.263 0.577,0.995 1.363,1.788 2.358,2.377 0.996,0.589 2.076,0.884 3.242,0.884 0.904,0 1.772,-0.186 2.604,-0.56 0.832,-0.373 1.562,-0.901 2.191,-1.581 L 4.107,10.317 C 3.583,10.906 2.964,11.365 2.25,11.692 1.536,12.02 0.786,12.184 0,12.184 c -1.009,0 -1.938,-0.252 -2.79,-0.756 C -3.642,10.923 -4.319,10.238 -4.824,9.374 -5.328,8.509 -5.58,7.566 -5.58,6.544 -5.58,5.522 -5.328,4.579 -4.824,3.715 -4.319,2.85 -3.642,2.165 -2.79,1.661 -1.938,1.156 -1.009,0.904 0,0.904 c 0.839,0 1.635,0.184 2.388,0.55 0.754,0.367 1.398,0.878 1.935,1.533 L 5.031,2.438 C 4.415,1.664 3.668,1.064 2.791,0.639 1.913,0.213 0.983,0 0,0" /></g><g
           transform="translate(486.6806,163.3571)"
           id="g136"><path
             id="path138"
             style="fill:none;stroke:#11100f;stroke-width:0.5;stroke-linecap:butt;stroke-linejoin:miter;stroke-miterlimit:10;stroke-dasharray:none;stroke-opacity:1"
             d="m 0,0 c -1.166,0 -2.246,0.295 -3.242,0.885 -0.995,0.59 -1.781,1.386 -2.358,2.387 -0.577,1.002 -0.865,2.093 -0.865,3.272 0,1.18 0.288,2.267 0.865,3.263 0.577,0.995 1.363,1.788 2.358,2.377 0.996,0.589 2.076,0.884 3.242,0.884 0.904,0 1.772,-0.186 2.604,-0.56 0.832,-0.373 1.562,-0.901 2.191,-1.581 L 4.107,10.317 C 3.583,10.906 2.964,11.365 2.25,11.692 1.536,12.02 0.786,12.184 0,12.184 c -1.009,0 -1.938,-0.252 -2.79,-0.756 C -3.642,10.923 -4.319,10.238 -4.824,9.374 -5.328,8.509 -5.58,7.566 -5.58,6.544 -5.58,5.522 -5.328,4.579 -4.824,3.715 -4.319,2.85 -3.642,2.165 -2.79,1.661 -1.938,1.156 -1.009,0.904 0,0.904 c 0.839,0 1.635,0.184 2.388,0.55 0.754,0.367 1.398,0.878 1.935,1.533 L 5.031,2.438 C 4.415,1.664 3.668,1.064 2.791,0.639 1.913,0.213 0.983,0 0,0 Z" /></g><path
           id="path140"
           style="fill:#12100f;fill-opacity:1;fill-rule:nonzero;stroke:#11100f;stroke-width:0.5;stroke-linecap:butt;stroke-linejoin:miter;stroke-miterlimit:10;stroke-dasharray:none;stroke-opacity:1"
           d="m 498.747,176.268 h 0.884 v -12.773 h -0.884 z" /><g
           transform="translate(512.541,174.2438)"
           id="g142"><path
             id="path144"
             style="fill:#12100f;fill-opacity:1;fill-rule:nonzero;stroke:none"
             d="m 0,0 -3.065,-6.622 h 5.994 z m -3.478,-7.507 -1.513,-3.242 H -5.974 L 0.04,2.182 5.719,-10.749 H 4.756 l -1.435,3.242 z" /></g><g
           transform="translate(512.541,174.2438)"
           id="g146"><path
             id="path148"
             style="fill:none;stroke:#11100f;stroke-width:0.5;stroke-linecap:butt;stroke-linejoin:miter;stroke-miterlimit:10;stroke-dasharray:none;stroke-opacity:1"
             d="m 0,0 -3.065,-6.622 h 5.994 z m -3.478,-7.507 -1.513,-3.242 H -5.974 L 0.04,2.182 5.719,-10.749 H 4.756 l -1.435,3.242 z" /></g><g
           transform="translate(524.9609,163.4948)"
           id="g150"><path
             id="path152"
             style="fill:#12100f;fill-opacity:1;fill-rule:nonzero;stroke:none"
             d="M 0,0 V 12.773 H 0.885 V 0.885 H 8.057 V 0 Z" /></g><g
           transform="translate(524.9609,163.4948)"
           id="g154"><path
             id="path156"
             style="fill:none;stroke:#11100f;stroke-width:0.5;stroke-linecap:butt;stroke-linejoin:miter;stroke-miterlimit:10;stroke-dasharray:none;stroke-opacity:1"
             d="M 0,0 V 12.773 H 0.885 V 0.885 H 8.057 V 0 Z" /></g><path
           id="path158"
           style="fill:#12100f;fill-opacity:1;fill-rule:nonzero;stroke:#11100f;stroke-width:0.5;stroke-linecap:butt;stroke-linejoin:miter;stroke-miterlimit:10;stroke-dasharray:none;stroke-opacity:1"
           d="m 540.544,176.268 h 0.884 v -12.773 h -0.884 z" /><g
           transform="translate(550.2519,164.3795)"
           id="g160"><path
             id="path162"
             style="fill:#12100f;fill-opacity:1;fill-rule:nonzero;stroke:none"
             d="M 0,0 H 2.79 C 4.375,0 5.666,0.557 6.661,1.67 7.12,2.168 7.47,2.747 7.713,3.409 7.955,4.07 8.076,4.775 8.076,5.521 8.076,6.255 7.955,6.953 7.713,7.614 7.47,8.275 7.12,8.855 6.661,9.354 5.652,10.44 4.362,10.984 2.79,10.984 H 0 Z M 2.79,-0.885 H -0.885 V 11.889 H 2.79 c 0.904,0 1.742,-0.167 2.516,-0.501 C 6.078,11.054 6.746,10.578 7.31,9.963 7.847,9.373 8.26,8.698 8.548,7.938 8.836,7.179 8.98,6.373 8.98,5.521 8.98,4.67 8.836,3.864 8.548,3.104 8.26,2.345 7.847,1.663 7.31,1.061 6.746,0.432 6.078,-0.05 5.306,-0.384 4.532,-0.718 3.694,-0.885 2.79,-0.885" /></g><g
           transform="translate(550.2519,164.3795)"
           id="g164"><path
             id="path166"
             style="fill:none;stroke:#11100f;stroke-width:0.5;stroke-linecap:butt;stroke-linejoin:miter;stroke-miterlimit:10;stroke-dasharray:none;stroke-opacity:1"
             d="M 0,0 H 2.79 C 4.375,0 5.666,0.557 6.661,1.67 7.12,2.168 7.47,2.747 7.713,3.409 7.955,4.07 8.076,4.775 8.076,5.521 8.076,6.255 7.955,6.953 7.713,7.614 7.47,8.275 7.12,8.855 6.661,9.354 5.652,10.44 4.362,10.984 2.79,10.984 H 0 Z M 2.79,-0.885 H -0.885 V 11.889 H 2.79 c 0.904,0 1.742,-0.167 2.516,-0.501 C 6.078,11.054 6.746,10.578 7.31,9.963 7.847,9.373 8.26,8.698 8.548,7.938 8.836,7.179 8.98,6.373 8.98,5.521 8.98,4.67 8.836,3.864 8.548,3.104 8.26,2.345 7.847,1.663 7.31,1.061 6.746,0.432 6.078,-0.05 5.306,-0.384 4.532,-0.718 3.694,-0.885 2.79,-0.885 Z" /></g><g
           transform="translate(570.2744,174.2438)"
           id="g168"><path
             id="path170"
             style="fill:#12100f;fill-opacity:1;fill-rule:nonzero;stroke:none"
             d="m 0,0 -3.065,-6.622 h 5.994 z m -3.478,-7.507 -1.513,-3.242 H -5.974 L 0.04,2.182 5.719,-10.749 H 4.756 l -1.435,3.242 z" /></g><g
           transform="translate(570.2744,174.2438)"
           id="g172"><path
             id="path174"
             style="fill:none;stroke:#11100f;stroke-width:0.5;stroke-linecap:butt;stroke-linejoin:miter;stroke-miterlimit:10;stroke-dasharray:none;stroke-opacity:1"
             d="m 0,0 -3.065,-6.622 h 5.994 z m -3.478,-7.507 -1.513,-3.242 H -5.974 L 0.04,2.182 5.719,-10.749 H 4.756 l -1.435,3.242 z" /></g><g
           transform="translate(583.579,164.3795)"
           id="g176"><path
             id="path178"
             style="fill:#12100f;fill-opacity:1;fill-rule:nonzero;stroke:none"
             d="M 0,0 H 2.79 C 4.375,0 5.666,0.557 6.661,1.67 7.12,2.168 7.47,2.747 7.713,3.409 7.955,4.07 8.076,4.775 8.076,5.521 8.076,6.255 7.955,6.953 7.713,7.614 7.47,8.275 7.12,8.855 6.661,9.354 5.652,10.44 4.362,10.984 2.79,10.984 H 0 Z M 2.79,-0.885 H -0.885 V 11.889 H 2.79 c 0.904,0 1.742,-0.167 2.516,-0.501 C 6.078,11.054 6.746,10.578 7.31,9.963 7.847,9.373 8.26,8.698 8.548,7.938 8.836,7.179 8.98,6.373 8.98,5.521 8.98,4.67 8.836,3.864 8.548,3.104 8.26,2.345 7.847,1.663 7.31,1.061 6.746,0.432 6.078,-0.05 5.306,-0.384 4.532,-0.718 3.694,-0.885 2.79,-0.885" /></g><g
           transform="translate(583.579,164.3795)"
           id="g180"><path
             id="path182"
             style="fill:none;stroke:#11100f;stroke-width:0.5;stroke-linecap:butt;stroke-linejoin:miter;stroke-miterlimit:10;stroke-dasharray:none;stroke-opacity:1"
             d="M 0,0 H 2.79 C 4.375,0 5.666,0.557 6.661,1.67 7.12,2.168 7.47,2.747 7.713,3.409 7.955,4.07 8.076,4.775 8.076,5.521 8.076,6.255 7.955,6.953 7.713,7.614 7.47,8.275 7.12,8.855 6.661,9.354 5.652,10.44 4.362,10.984 2.79,10.984 H 0 Z M 2.79,-0.885 H -0.885 V 11.889 H 2.79 c 0.904,0 1.742,-0.167 2.516,-0.501 C 6.078,11.054 6.746,10.578 7.31,9.963 7.847,9.373 8.26,8.698 8.548,7.938 8.836,7.179 8.98,6.373 8.98,5.521 8.98,4.67 8.836,3.864 8.548,3.104 8.26,2.345 7.847,1.663 7.31,1.061 6.746,0.432 6.078,-0.05 5.306,-0.384 4.532,-0.718 3.694,-0.885 2.79,-0.885 Z" /></g><g
           transform="translate(599.456,163.4948)"
           id="g184"><path
             id="path186"
             style="fill:#12100f;fill-opacity:1;fill-rule:nonzero;stroke:none"
             d="M 0,0 V 12.773 H 8.273 V 11.869 H 0.885 V 6.839 H 6.643 V 5.935 H 0.885 V 0.924 H 8.273 V 0 Z" /></g><g
           transform="translate(599.456,163.4948)"
           id="g188"><path
             id="path190"
             style="fill:none;stroke:#11100f;stroke-width:0.5;stroke-linecap:butt;stroke-linejoin:miter;stroke-miterlimit:10;stroke-dasharray:none;stroke-opacity:1"
             d="M 0,0 V 12.773 H 8.273 V 11.869 H 0.885 V 6.839 H 6.643 V 5.935 H 0.885 V 0.924 H 8.273 V 0 Z" /></g><g
           transform="translate(622.9492,168.4371)"
           id="g192"><path
             id="path194"
             style="fill:#12100f;fill-opacity:1;fill-rule:nonzero;stroke:none"
             d="m 0,0 c 0.334,-0.491 0.501,-1.019 0.501,-1.582 0,-0.484 -0.118,-0.946 -0.354,-1.385 -0.236,-0.439 -0.577,-0.822 -1.022,-1.15 -0.917,-0.655 -1.984,-0.983 -3.203,-0.983 -0.603,0 -1.179,0.086 -1.729,0.256 -0.55,0.17 -1.042,0.412 -1.473,0.727 -0.747,0.551 -1.199,1.225 -1.357,2.024 l 0.845,0.472 c 0.04,-0.721 0.394,-1.311 1.062,-1.769 0.34,-0.262 0.74,-0.462 1.198,-0.599 0.459,-0.138 0.943,-0.206 1.454,-0.206 1.049,0 1.932,0.268 2.653,0.805 0.695,0.511 1.042,1.114 1.042,1.808 0,0.406 -0.128,0.786 -0.384,1.14 -0.254,0.354 -0.612,0.655 -1.071,0.904 -0.432,0.223 -1.205,0.399 -2.318,0.53 -0.092,0.013 -0.423,0.066 -0.992,0.157 -0.571,0.092 -1.059,0.237 -1.464,0.433 -0.643,0.314 -1.147,0.731 -1.514,1.248 -0.366,0.517 -0.55,1.077 -0.55,1.68 0,0.484 0.121,0.94 0.363,1.366 0.243,0.425 0.586,0.802 1.033,1.13 0.431,0.314 0.923,0.556 1.473,0.726 0.55,0.17 1.126,0.256 1.729,0.256 1.219,0 2.286,-0.328 3.203,-0.982 0.76,-0.577 1.206,-1.245 1.337,-2.005 L -0.383,4.529 C -0.396,4.856 -0.491,5.171 -0.668,5.473 -0.845,5.774 -1.098,6.049 -1.425,6.298 -1.778,6.561 -2.185,6.76 -2.644,6.897 -3.102,7.035 -3.58,7.104 -4.078,7.104 -4.575,7.104 -5.057,7.035 -5.522,6.897 -5.987,6.76 -6.39,6.561 -6.73,6.298 -7.071,6.049 -7.333,5.771 -7.517,5.463 -7.7,5.155 -7.792,4.837 -7.792,4.51 -7.792,4.104 -7.642,3.701 -7.34,3.302 -7.038,2.901 -6.665,2.591 -6.22,2.368 -5.944,2.237 -5.64,2.142 -5.306,2.083 -4.972,2.024 -4.543,1.962 -4.019,1.896 -3.927,1.883 -3.698,1.851 -3.331,1.798 -2.964,1.746 -2.61,1.674 -2.27,1.582 -1.93,1.49 -1.641,1.379 -1.405,1.248 -0.803,0.907 -0.334,0.491 0,0" /></g><g
           transform="translate(622.9492,168.4371)"
           id="g196"><path
             id="path198"
             style="fill:none;stroke:#11100f;stroke-width:0.5;stroke-linecap:butt;stroke-linejoin:miter;stroke-miterlimit:10;stroke-dasharray:none;stroke-opacity:1"
             d="m 0,0 c 0.334,-0.491 0.501,-1.019 0.501,-1.582 0,-0.484 -0.118,-0.946 -0.354,-1.385 -0.236,-0.439 -0.577,-0.822 -1.022,-1.15 -0.917,-0.655 -1.984,-0.983 -3.203,-0.983 -0.603,0 -1.179,0.086 -1.729,0.256 -0.55,0.17 -1.042,0.412 -1.473,0.727 -0.747,0.551 -1.199,1.225 -1.357,2.024 l 0.845,0.472 c 0.04,-0.721 0.394,-1.311 1.062,-1.769 0.34,-0.262 0.74,-0.462 1.198,-0.599 0.459,-0.138 0.943,-0.206 1.454,-0.206 1.049,0 1.932,0.268 2.653,0.805 0.695,0.511 1.042,1.114 1.042,1.808 0,0.406 -0.128,0.786 -0.384,1.14 -0.254,0.354 -0.612,0.655 -1.071,0.904 -0.432,0.223 -1.205,0.399 -2.318,0.53 -0.092,0.013 -0.423,0.066 -0.992,0.157 -0.571,0.092 -1.059,0.237 -1.464,0.433 -0.643,0.314 -1.147,0.731 -1.514,1.248 -0.366,0.517 -0.55,1.077 -0.55,1.68 0,0.484 0.121,0.94 0.363,1.366 0.243,0.425 0.586,0.802 1.033,1.13 0.431,0.314 0.923,0.556 1.473,0.726 0.55,0.17 1.126,0.256 1.729,0.256 1.219,0 2.286,-0.328 3.203,-0.982 0.76,-0.577 1.206,-1.245 1.337,-2.005 L -0.383,4.529 C -0.396,4.856 -0.491,5.171 -0.668,5.473 -0.845,5.774 -1.098,6.049 -1.425,6.298 -1.778,6.561 -2.185,6.76 -2.644,6.897 -3.102,7.035 -3.58,7.104 -4.078,7.104 -4.575,7.104 -5.057,7.035 -5.522,6.897 -5.987,6.76 -6.39,6.561 -6.73,6.298 -7.071,6.049 -7.333,5.771 -7.517,5.463 -7.7,5.155 -7.792,4.837 -7.792,4.51 -7.792,4.104 -7.642,3.701 -7.34,3.302 -7.038,2.901 -6.665,2.591 -6.22,2.368 -5.944,2.237 -5.64,2.142 -5.306,2.083 -4.972,2.024 -4.543,1.962 -4.019,1.896 -3.927,1.883 -3.698,1.851 -3.331,1.798 -2.964,1.746 -2.61,1.674 -2.27,1.582 -1.93,1.49 -1.641,1.379 -1.405,1.248 -0.803,0.907 -0.334,0.491 0,0 Z" /></g></g></g><g
       id="g200"><g
         id="g202"><g
           id="g208"><g
             id="g210"><path
               id="path218"
               style="fill:url(#linearGradient216);stroke:none"
               d="M 366.051,417.063 C 326.569,386.745 319.137,330.161 349.454,290.678 v 0 c 30.317,-39.483 86.901,-46.914 126.385,-16.597 v 0 c 39.483,30.318 46.914,86.902 16.596,126.385 v 0 c -17.748,23.116 -44.502,35.245 -71.555,35.246 v 0 c -19.156,0 -38.462,-6.081 -54.829,-18.649" /></g></g></g></g><g
       id="g220"><g
         clip-path="url(#clipPath226)"
         id="g222"><g
           transform="translate(494.3319,356.4542)"
           id="g228"><path
             id="path230"
             style="fill:#ffffff;fill-opacity:1;fill-rule:nonzero;stroke:none"
             d="m 0,0 c -4.065,-0.898 -8.157,-1.048 -12.312,-0.626 -3.571,0.362 -6.801,-0.572 -9.375,-3.29 -1.574,-1.662 -3.012,-3.426 -4.202,-5.371 -0.578,-0.944 -1.228,-1.327 -2.37,-1.367 -4.252,-0.153 -8.501,0.054 -12.755,-0.073 -9.073,-0.271 -17.877,-1.536 -25.988,-5.98 -2.287,-1.252 -4.404,-2.693 -6.343,-4.367 1.197,1.845 2.167,3.832 2.899,5.976 1.771,5.188 2.495,10.455 1.592,15.901 -0.056,0.341 -0.072,0.668 0.081,1.042 0.784,1.919 1.132,3.944 1.295,6.002 0.336,4.24 -0.723,8.139 -3.394,11.414 -3.225,3.955 -7.484,6.194 -12.602,6.822 -1.198,0.146 -1.096,-0.202 -0.795,-1.025 1.005,-2.735 1.461,-5.582 1.515,-8.48 0.034,-1.807 0.089,-3.609 0.239,-5.41 0.171,-2.031 1.005,-3.769 2.331,-5.278 2.273,-2.586 5.205,-4.269 8.195,-5.848 0.736,-0.389 1.101,-0.827 1.042,-1.67 -0.128,-1.793 -0.243,-3.58 -0.537,-5.364 -0.835,-5.065 -2.697,-9.631 -6.17,-13.479 -0.611,-0.676 -1.041,-0.81 -1.805,-0.084 -2.481,2.361 -5.293,4.313 -8.578,5.326 -5.369,1.657 -10.773,1.251 -16.114,-0.275 -0.884,-0.252 -1.677,-0.289 -2.573,-0.055 -1.935,0.509 -3.909,0.834 -6.112,0.559 -1.464,0.055 -2.994,-0.482 -4.444,-1.141 -1.987,-0.902 -3.928,-1.942 -5.229,-3.808 -0.231,-0.332 -1.744,-2.742 -2.098,-3.349 -0.238,-0.406 -1.4,-4.179 -1.671,-5.215 -0.131,-0.496 -0.08,-1.038 -0.161,-1.551 -0.097,-0.617 0.169,-0.687 0.676,-0.545 1.04,0.294 2.019,0.751 3.073,1.03 2.623,0.696 5.305,0.821 7.981,1.023 1.292,0.098 2.615,0.277 3.733,0.829 2.957,1.46 4.537,4.192 6.067,6.97 0.467,0.846 0.482,2.053 1.891,2.352 7.249,1.539 13.853,0.367 19.519,-4.589 1.503,-1.315 2.862,-2.887 3.53,-4.847 0.118,-0.349 0.24,-0.555 0.367,-0.653 -1.31,-2.294 -2.204,-70.118 -2.635,-72.828 0.424,0.113 9.219,-0.508 9.705,-0.662 -0.043,3.002 0.736,72.499 2.485,75.344 2.538,4.126 6.373,6.974 10.709,9.036 4.195,1.995 8.697,2.916 13.311,3.429 6.595,0.734 13.226,0.605 19.835,0.988 0.456,0.026 0.851,-0.109 1.265,-0.295 2.57,-1.153 5.217,-1.92 8.076,-2.033 9.278,-0.367 15.793,6.807 17.449,14.896 C 0.689,-0.173 0.688,0.152 0,0" /></g><g
           transform="translate(445.8583,330.8595)"
           id="g232"><path
             id="path234"
             style="fill:#ffffff;fill-opacity:1;fill-rule:evenodd;stroke:none"
             d="M 0,0 -0.223,-0.352 -0.509,-0.736 -0.921,-1.664 -1.937,-3.455 -2.541,-4.479 -3.305,-5.503 -4.29,-6.72 -5.563,-8.001 -6.297,-8.61 l -0.796,-0.641 -0.892,-0.61 -0.892,-0.61 -0.957,-0.482 -0.957,-0.322 -0.957,-0.323 -1.022,-0.194 -0.925,-0.067 -0.895,0.029 -0.415,0.031 -0.384,0.126 -0.382,0.127 -0.416,0.19 -0.321,0.159 -0.384,0.286 -0.224,0.286 -0.257,0.351 -0.192,0.383 -0.225,0.446 -0.161,0.479 -0.161,0.478 -0.034,0.543 -0.066,0.607 0.03,0.574 0.159,0.48 0.093,0.607 0.222,0.511 0.508,1.056 0.763,1.025 0.859,0.992 0.987,0.897 1.179,0.834 1.211,0.771 1.244,0.706 1.307,0.579 1.372,0.452 1.34,0.355 1.276,0.323 1.309,0.1 1.247,-0.091 1.979,0.038 L -0.36,2.777 0.247,2.683 0.694,2.589 0.918,2.462 h 0.16 L 1.206,2.367 1.271,2.239 1.302,2.175 1.366,2.048 1.431,1.92 1.399,1.825 1.432,1.761 1.368,1.569 1.305,1.537 1.146,1.217 Z" /></g><g
           transform="translate(475.0399,366.9279)"
           id="g236"><path
             id="path238"
             style="fill:#ffffff;fill-opacity:1;fill-rule:evenodd;stroke:none"
             d="M 0,0 -0.223,-0.352 -0.509,-0.736 -0.921,-1.664 -1.937,-3.455 -2.541,-4.479 -3.305,-5.503 -4.29,-6.72 -5.563,-8.001 -6.297,-8.61 l -0.796,-0.641 -0.892,-0.61 -0.892,-0.61 -0.957,-0.482 -0.957,-0.322 -0.957,-0.322 -1.022,-0.195 -0.925,-0.067 -0.895,0.029 -0.415,0.031 -0.384,0.126 -0.382,0.127 -0.416,0.19 -0.321,0.159 -0.384,0.286 -0.224,0.287 -0.257,0.35 -0.192,0.383 -0.225,0.446 -0.161,0.479 -0.161,0.478 -0.034,0.543 -0.066,0.607 0.03,0.574 0.159,0.48 0.093,0.607 0.222,0.512 0.508,1.055 0.763,1.025 0.859,0.992 0.987,0.898 1.179,0.834 1.211,0.77 1.243,0.706 1.308,0.579 1.372,0.452 1.34,0.355 1.276,0.323 1.309,0.1 1.247,-0.091 1.979,0.038 L -0.36,2.777 0.247,2.683 0.694,2.589 0.918,2.462 h 0.16 L 1.206,2.367 1.271,2.239 1.302,2.176 1.366,2.048 1.431,1.92 1.399,1.825 1.432,1.761 1.368,1.569 1.304,1.537 1.146,1.217 Z" /></g><g
           transform="translate(448.8505,364.2335)"
           id="g240"><path
             id="path242"
             style="fill:#ffffff;fill-opacity:1;fill-rule:evenodd;stroke:none"
             d="M 0,0 -0.223,-0.352 -0.509,-0.736 -0.921,-1.664 -1.937,-3.455 -2.54,-4.479 -3.304,-5.503 -4.29,-6.72 -5.563,-8.001 -6.296,-8.61 l -0.796,-0.641 -0.892,-0.61 -0.893,-0.61 -0.956,-0.482 -0.957,-0.322 -0.957,-0.322 -1.022,-0.195 -0.925,-0.067 -0.895,0.029 -0.415,0.031 -0.384,0.127 -0.383,0.126 -0.416,0.19 -0.32,0.159 -0.384,0.286 -0.224,0.287 -0.257,0.351 -0.192,0.382 -0.226,0.446 -0.161,0.479 -0.161,0.478 -0.034,0.543 -0.066,0.607 0.03,0.575 0.159,0.479 0.093,0.607 0.223,0.512 0.507,1.055 0.763,1.025 0.86,0.992 0.987,0.898 1.179,0.834 1.211,0.77 1.243,0.706 1.308,0.579 1.372,0.452 1.34,0.355 1.276,0.323 1.308,0.1 1.247,-0.091 1.979,0.038 L -0.359,2.777 0.247,2.683 0.694,2.589 0.919,2.462 H 1.078 L 1.206,2.367 1.271,2.239 1.303,2.176 1.367,2.048 1.432,1.92 1.399,1.825 1.432,1.761 1.368,1.569 1.305,1.537 1.146,1.217 Z" /></g><g
           transform="translate(478.8622,394.3512)"
           id="g244"><path
             id="path246"
             style="fill:#ffffff;fill-opacity:1;fill-rule:evenodd;stroke:none"
             d="m 0,0 -0.319,-0.505 -0.41,-0.552 -0.592,-1.331 -1.459,-2.571 -0.866,-1.47 -1.096,-1.47 -1.415,-1.746 -1.828,-1.839 -1.051,-0.874 -1.144,-0.92 -1.28,-0.875 -1.28,-0.875 -1.373,-0.692 -1.374,-0.463 -1.374,-0.463 -1.466,-0.279 -1.328,-0.096 -1.284,0.042 -0.596,0.044 -0.551,0.182 -0.551,0.181 -0.596,0.273 -0.459,0.228 -0.551,0.411 -0.322,0.411 -0.369,0.503 -0.277,0.549 -0.322,0.641 -0.232,0.687 -0.231,0.687 -0.048,0.779 -0.095,0.87 0.043,0.825 0.228,0.689 0.135,0.871 0.318,0.734 0.728,1.515 1.096,1.47 1.233,1.425 1.417,1.288 1.692,1.197 1.738,1.105 1.784,1.015 1.877,0.831 1.969,0.648 1.924,0.51 1.832,0.464 1.879,0.143 1.787,-0.132 2.842,0.055 1.1,-0.134 L 0.354,3.851 0.997,3.716 1.318,3.533 1.548,3.534 1.731,3.397 1.823,3.214 1.87,3.123 1.962,2.939 2.054,2.756 2.009,2.619 2.055,2.527 1.964,2.252 1.873,2.206 1.645,1.747 Z" /></g><g
           transform="translate(437.9862,409.8121)"
           id="g248"><path
             id="path250"
             style="fill:#ffffff;fill-opacity:1;fill-rule:evenodd;stroke:none"
             d="m 0,0 -0.254,-0.541 -0.245,-0.643 -0.805,-1.214 -1.384,-2.612 -0.774,-1.52 -0.651,-1.714 -0.712,-2.132 -0.57,-2.529 -0.171,-1.357 -0.163,-1.458 -0.049,-1.551 -0.05,-1.55 0.154,-1.53 0.349,-1.406 0.347,-1.408 0.552,-1.386 0.633,-1.172 0.726,-1.06 0.357,-0.479 0.448,-0.367 0.45,-0.367 0.55,-0.357 0.44,-0.264 0.642,-0.244 0.52,-0.051 0.622,-0.04 0.612,0.061 0.714,0.073 0.703,0.173 0.704,0.174 0.683,0.378 0.785,0.388 0.673,0.48 0.458,0.561 0.663,0.582 0.447,0.664 0.887,1.428 0.651,1.714 0.539,1.806 0.325,1.887 0.1,2.07 -0.002,2.06 -0.103,2.05 -0.308,2.029 L 8.981,-8.366 8.378,-6.469 7.785,-4.675 6.896,-3.013 5.824,-1.576 4.344,0.85 3.64,1.706 3.058,2.368 2.599,2.837 2.271,3.01 2.149,3.204 1.936,3.285 1.731,3.265 1.629,3.254 1.425,3.234 1.222,3.213 1.13,3.101 1.027,3.091 0.844,2.866 0.854,2.764 0.59,2.326 Z" /></g><g
           transform="translate(392.8085,399.2462)"
           id="g252"><path
             id="path254"
             style="fill:#ffffff;fill-opacity:1;fill-rule:evenodd;stroke:none"
             d="m 0,0 -0.041,-0.47 -0.006,-0.543 -0.265,-1.119 -0.316,-2.313 -0.159,-1.337 -0.017,-1.448 0.053,-1.774 0.268,-2.03 0.241,-1.052 0.277,-1.125 0.385,-1.163 0.386,-1.162 0.53,-1.092 0.642,-0.948 0.64,-0.948 0.787,-0.877 0.788,-0.697 0.827,-0.588 0.395,-0.258 0.433,-0.15 0.432,-0.149 0.505,-0.114 0.398,-0.077 0.543,-0.006 0.399,0.104 0.472,0.14 0.436,0.212 0.51,0.248 0.474,0.32 0.474,0.321 0.404,0.466 0.475,0.501 0.368,0.539 0.188,0.541 0.332,0.611 0.151,0.614 0.268,1.3 0.016,1.448 -0.091,1.485 -0.274,1.486 -0.489,1.562 -0.563,1.527 -0.634,1.491 -0.781,1.42 -0.926,1.349 -0.963,1.241 -0.929,1.169 -1.11,0.99 L 4.746,0.418 2.988,1.812 2.233,2.255 1.622,2.588 1.153,2.81 0.864,2.85 0.721,2.96 0.54,2.962 0.395,2.891 0.321,2.855 0.176,2.785 0.03,2.714 -0.007,2.606 -0.08,2.57 -0.154,2.354 -0.119,2.281 -0.196,1.884 Z" /></g><g
           transform="translate(397.9716,368.6373)"
           id="g256"><path
             id="path258"
             style="fill:#ffffff;fill-opacity:1;fill-rule:evenodd;stroke:none"
             d="m 0,0 -0.035,-0.403 -0.006,-0.465 -0.228,-0.959 -0.269,-1.983 -0.138,-1.146 -0.013,-1.24 0.045,-1.521 0.229,-1.74 0.207,-0.901 0.237,-0.965 0.33,-0.996 0.331,-0.996 0.455,-0.935 0.549,-0.813 0.549,-0.813 0.675,-0.752 0.676,-0.597 0.708,-0.504 0.338,-0.221 0.371,-0.128 0.371,-0.128 0.432,-0.098 0.341,-0.066 0.466,-0.005 0.342,0.089 0.404,0.12 0.374,0.182 0.438,0.212 0.406,0.275 0.406,0.274 0.346,0.4 0.407,0.43 0.316,0.461 0.16,0.464 0.285,0.524 0.13,0.526 0.229,1.114 0.014,1.241 -0.079,1.272 -0.234,1.275 -0.419,1.338 L 9.664,-6.87 9.12,-5.592 8.451,-4.375 7.657,-3.218 6.831,-2.154 6.036,-1.153 5.084,-0.305 4.067,0.358 2.561,1.554 1.914,1.933 1.39,2.218 0.988,2.408 0.74,2.442 0.617,2.537 0.462,2.539 0.338,2.478 0.275,2.447 0.15,2.387 0.025,2.326 -0.006,2.233 -0.068,2.203 -0.133,2.018 -0.103,1.955 -0.168,1.615 Z" /></g><g
           transform="translate(371.5478,366.8654)"
           id="g260"><path
             id="path262"
             style="fill:#ffffff;fill-opacity:1;fill-rule:evenodd;stroke:none"
             d="m 0,0 0.215,-0.39 0.282,-0.428 0.381,-1.016 0.973,-1.978 0.58,-1.131 0.751,-1.141 0.975,-1.362 1.28,-1.449 0.744,-0.696 0.809,-0.735 0.915,-0.707 0.914,-0.707 0.992,-0.575 1.001,-0.404 1.001,-0.405 1.079,-0.272 0.984,-0.13 0.957,-0.025 0.445,0.007 0.418,0.11 0.417,0.112 0.456,0.176 0.352,0.15 0.429,0.281 0.256,0.292 0.297,0.359 0.23,0.396 0.268,0.462 0.203,0.501 0.202,0.501 0.07,0.578 0.108,0.643 0.004,0.616 -0.138,0.522 -0.063,0.654 -0.204,0.56 -0.476,1.159 -0.751,1.142 -0.854,1.114 -0.998,1.02 -1.206,0.965 -1.245,0.899 L 11.771,0.5 10.41,1.201 8.974,1.77 7.565,2.233 6.223,2.659 4.831,2.848 3.495,2.829 1.384,2.994 0.56,2.942 -0.095,2.88 -0.579,2.808 -0.826,2.687 -0.996,2.697 -1.139,2.603 -1.216,2.471 -1.254,2.405 -1.331,2.273 -1.407,2.141 -1.38,2.036 -1.418,1.97 -1.362,1.761 -1.296,1.723 -1.147,1.372 Z" /></g></g></g></g></svg>